# This file uses centimeters as units for non-parametric coordinates.

mtllib BrayanLeaf.mtl
g default
v 0.506020 -0.153628 0.033958
v -0.005590 0.009407 -0.000555
v -0.474634 -0.230714 0.068755
v 0.673382 -0.794475 0.184730
v 0.046831 -0.843072 0.107426
v -0.572711 -0.891087 0.228942
v 0.578904 -1.475310 0.143808
v 0.093844 -1.696000 0.062020
v -0.401750 -1.552396 0.178605
vt 0.179174 0.102559
vt 0.503219 0.000000
vt 0.723745 0.102559
vt 0.075449 0.500000
vt 0.490712 0.500000
vt 0.833433 0.500000
vt 0.179174 0.932461
vt 0.490712 1.000000
vt 0.756264 0.979989
vn -0.080725 0.158625 0.984033
vn 0.022969 0.164919 0.986040
vn 0.031180 0.061388 0.997627
vn -0.105707 0.053188 0.992974
vn 0.126486 0.169435 0.977391
vn 0.167498 0.068432 0.983495
vn 0.039031 -0.042560 0.998331
vn -0.129192 -0.051740 0.990269
vn 0.206064 -0.032175 0.978010
s 1
g pPlane1
usemtl initialShadingGroup
f 1/1/1 2/2/2 5/5/3 4/4/4
f 2/2/2 3/3/5 6/6/6 5/5/3
f 4/4/4 5/5/3 8/8/7 7/7/8
f 5/5/3 6/6/6 9/9/9 8/8/7
