# 3ds Max Wavefront OBJ Exporter v0.97b - (c)2007 guruware
# File Created: 22.05.2014 09:21:06

#
# object Line001
#

v  0.0000 -20.0000 5.2110
v  20.0000 0.0000 0.0000
v  -20.0000 0.0000 0.0000
v  20.0000 -40.0000 0.0000
v  20.0000 0.0000 0.0000
v  -20.0000 0.0000 0.0000
v  -20.0000 -40.0000 0.0000
v  -20.0000 -40.0000 0.0000
v  20.0000 -40.0000 0.0000
# 9 vertices

vn 0.0000 0.2521 0.9677
vn 0.0000 0.2521 0.9677
vn 0.0000 0.0000 1.0000
vn 0.2521 0.0000 0.9677
vn 0.2521 0.0000 0.9677
vn 0.0000 0.0000 1.0000
vn -0.2521 0.0000 0.9677
vn -0.2521 0.0000 0.9677
vn 0.0000 0.0000 1.0000
vn 0.0000 -0.2521 0.9677
vn 0.0000 -0.2521 0.9677
vn 0.0000 0.0000 1.0000
# 12 vertex normals

vt 0.5000 0.5000 0.9995
vt 0.0005 0.0005 0.0005
vt 0.9995 0.0005 0.0005
vt 0.0005 0.9995 0.0005
vt 0.0005 0.0005 0.0005
vt 0.9995 0.0005 0.0005
vt 0.9995 0.9995 0.0005
vt 0.9995 0.9995 0.0005
vt 0.0005 0.9995 0.0005
# 9 texture coords

g Line001
s 1
f 2/2/1 3/3/2 1/1/3 
f 4/4/4 5/5/5 1/1/6 
f 6/6/7 7/7/8 1/1/9 
f 8/8/10 9/9/11 1/1/12 
# 4 faces

